<svg xmlns="http://www.w3.org/2000/svg" viewBox="0 0 400 560" width="400" height="560">
<defs><clipPath id="scene"><rect x="36" y="118" width="328" height="268"/></clipPath></defs>
<rect width="400" height="560" fill="#141c28"/>
<rect x="10" y="10" width="380" height="540" fill="#1a2433" stroke="#8a4a32" stroke-width="2"/>
<rect x="10" y="10" width="380" height="18" fill="#8a4a32"/>
<text x="24" y="54" fill="#d07a4a" font-family="ui-monospace,monospace" font-size="13" letter-spacing="2">İHTAR</text>
<text x="376" y="54" text-anchor="end" fill="#8a93a3" font-family="ui-monospace,monospace" font-size="13">IHTAR</text>
<text x="200" y="96" text-anchor="middle" fill="#e8dcc4" font-family="Georgia,serif" font-size="22">DRB-279</text>

<rect x="36" y="118" width="328" height="268" fill="#243044" stroke="#2e3d52" stroke-width="1"/>
<g clip-path="url(#scene)"><rect x="36" y="118" width="328" height="268" fill="#171b20"/><path d="M36 334 L364 291 V386 H36Z" fill="#3a2d24"/><path d="M36 337 L364 294" stroke="#8f7355" opacity=".45"/><path d="M288 145 l18 -4" stroke="#eadfbe" opacity=".10"/><path d="M335 174 l21 -3" stroke="#eadfbe" opacity=".10"/><path d="M82 203 l24 -2" stroke="#eadfbe" opacity=".10"/><path d="M129 232 l27 -1" stroke="#eadfbe" opacity=".10"/><path d="M176 261 l30 0" stroke="#eadfbe" opacity=".10"/><path d="M223 290 l33 1" stroke="#eadfbe" opacity=".10"/><path d="M270 319 l36 2" stroke="#eadfbe" opacity=".10"/><rect x="72" y="176" width="86" height="117" fill="#222b2d" stroke="#9a896d"/><circle cx="115" cy="213" r="24" fill="none" stroke="#c2b18e" stroke-width="4"/><path d="M92 267h46M163 207c32-32 69-29 98-6M167 223c39-27 78-20 111 7" fill="none" stroke="#8a4a32" stroke-width="3"/><rect x="265" y="189" width="58" height="103" rx="8" fill="#171d20" stroke="#ad9a78"/><circle cx="294" cy="212" r="18" fill="#343f42"/><path d="M282 252h24" stroke="#c0ad88" stroke-width="5"/><g transform="translate(249 339) rotate(6)"><circle cx="-8" r="9" fill="none" stroke="#d2c4a3" stroke-width="3"/><circle cx="12" r="9" fill="none" stroke="#d2c4a3" stroke-width="3"/><path d="M1 0h2M-17 0h-9M21 0h9" stroke="#d2c4a3" stroke-width="3"/></g><g opacity=".35" transform="scale(.5) translate(310 325)"><polygon points="200,190 262,298 138,298" fill="none" stroke="#c4a574" stroke-width="4"/><text x="200" y="268" text-anchor="middle" fill="#e8dcc4" font-family="Georgia,serif" font-size="28">!</text></g></g>

<text x="200" y="430" text-anchor="middle" fill="#e8dcc4" font-family="Georgia,serif" font-size="20">İhtar: Ara Karar</text>
<text x="200" y="462" text-anchor="middle" fill="#c4a574" font-family="ui-monospace,monospace" font-size="13">İHTAR</text>
<rect x="36" y="484" width="328" height="44" fill="#121820"/>
<text x="200" y="514" text-anchor="middle" fill="#e8dcc4" font-family="ui-monospace,monospace" font-size="22">—</text>
</svg>
