<svg xmlns="http://www.w3.org/2000/svg" viewBox="0 0 400 560" width="400" height="560">
<defs><pattern id="grain" width="7" height="7" patternUnits="userSpaceOnUse"><path d="M0 7 L7 0" stroke="#2a2218" opacity=".055"/></pattern><clipPath id="well-DRB-043"><rect x="28" y="88" width="344" height="330"/></clipPath></defs>
<rect width="400" height="560" fill="#0e1014"/>
<rect x="10" y="10" width="380" height="540" fill="#161d28" stroke="#3d6a6a" stroke-width="2"/>
<rect x="10" y="10" width="380" height="22" fill="#3d6a6a"/>
<text x="22" y="52" fill="#c4a574" font-family="ui-monospace,monospace" font-size="12" letter-spacing="1.6">GÖREVLİ</text>
<text x="378" y="52" text-anchor="end" fill="#9aa093" font-family="ui-monospace,monospace" font-size="12">ZEYIL</text>
<text x="200" y="78" text-anchor="middle" fill="#e8dcc4" font-family="Georgia,serif" font-size="20">DRB-043</text>
<circle cx="168" cy="64" r="4" fill="#c4a574"/><circle cx="184" cy="64" r="4" fill="#c4a574"/><circle cx="200" cy="64" r="4" fill="#c4a574"/><circle cx="216" cy="64" r="4" fill="#c4a574"/>
<g clip-path="url(#well-DRB-043)" data-series="Zeyil" data-kind="unit" data-subtype="effect" data-tier="low" data-aux="0"><rect x="28" y="88" width="344" height="330" fill="#1c2424"/><g transform="rotate(-2.0 160.0 250.0)"><rect x="50.0" y="108.0" width="220.0" height="284.0" fill="#e6d5b4" stroke="#6f5b43" stroke-width="1.2"/></g><g transform="rotate(0.0 270.0 260.0)"><rect x="200.0" y="128.0" width="140.0" height="264.0" fill="#d2e0d8" stroke="#6f5b43" stroke-width="1.2"/></g><rect x="200" y="128" width="18" height="264" fill="#3d6a6a"/><path d="M70.0 140.0 h109.8" stroke="#5d503e" stroke-width="1.25"/><path d="M70.0 158.0 h140.4" stroke="#5d503e" stroke-width="1.25"/><path d="M70.0 194.0 h117.0" stroke="#5d503e" stroke-width="1.25"/><path d="M70.0 212.0 h147.6" stroke="#5d503e" stroke-width="1.25"/><path d="M70.0 230.0 h93.6" stroke="#5d503e" stroke-width="1.25"/><path d="M70.0 248.0 h124.2" stroke="#5d503e" stroke-width="1.25"/><path d="M70.0 266.0 h154.8" stroke="#5d503e" stroke-width="1.25"/><path d="M70.0 284.0 h100.8" stroke="#5d503e" stroke-width="1.25"/><path d="M70.0 302.0 h131.4" stroke="#5d503e" stroke-width="1.25"/><path d="M228.0 160.0 h69.3" stroke="#5d503e" stroke-width="1.25"/><path d="M228.0 180.0 h84.6" stroke="#5d503e" stroke-width="1.25"/><path d="M228.0 200.0 h57.6" stroke="#5d503e" stroke-width="1.25"/><path d="M228.0 220.0 h72.9" stroke="#5d503e" stroke-width="1.25"/><path d="M228.0 240.0 h45.9" stroke="#5d503e" stroke-width="1.25"/><path d="M228.0 260.0 h61.2" stroke="#5d503e" stroke-width="1.25"/><path d="M228.0 280.0 h76.5" stroke="#5d503e" stroke-width="1.25"/><path d="M228.0 300.0 h49.5" stroke="#5d503e" stroke-width="1.25"/><g transform="rotate(-8 120 364)"><circle cx="120" cy="364" r="28" fill="none" stroke="#3d6a6a" stroke-width="3.4"/><circle cx="120" cy="364" r="21" fill="none" stroke="#3d6a6a" stroke-width="1.1"/><text x="120" y="368" text-anchor="middle" fill="#3d6a6a" font-family="Georgia,serif" font-size="9" font-weight="700">ZEYİL</text></g><path d="M58 116 v22 q0 8 8 8 q8 0 8 -8 v-18" fill="none" stroke="#8a7a5a" stroke-width="2.4"/><path d="M62 118 v18 q0 4 4 4" fill="none" stroke="#c4b48a" stroke-width="1.4"/><rect x="300.0" y="360.0" width="64.0" height="38.0" fill="#2a2620" stroke="#8a7a5a" stroke-width="1.2"/><circle cx="318" cy="379" r="10" fill="none" stroke="#c4a574" stroke-width="2"/><rect x="336.0" y="368.0" width="20.0" height="6.0" fill="#e6d5b4" stroke="#6f5b43" stroke-width="1.2"/><path d="M348 360 v-16" stroke="#c4a574" stroke-width="2"/><path d="M76.0 390.0 C108.0 353.0 169.0 399.0 210.0 401.0 S259.0 398.0 276.0 389.0" fill="none" stroke="#3d6a6a" stroke-width="2.6" stroke-linecap="round"/><path d="M100.0 398.0 C126.0 378.0 166.0 406.0 216.0 390.0" fill="none" stroke="#3d6a6a" stroke-width="1.4" opacity=".7"/><g transform="rotate(1.0 109.0 110.0)"><rect x="43.0" y="96.0" width="132.0" height="28.0" fill="#f3ead4" stroke="#6f5b43" stroke-width="1.2"/></g><text x="51" y="114" fill="#3a2a18" font-family="ui-monospace,monospace" font-size="8">DRB-043 · Zeyil Müşaviri</text><rect x="28" y="88" width="344" height="330" fill="url(#grain)"/><!--well-end--></g>

<rect x="28" y="430" width="344" height="36" fill="#121820" opacity=".92"/>
<text x="200" y="454" text-anchor="middle" fill="#e8dcc4" font-family="Georgia,serif" font-size="18">Zeyil Müşaviri</text>
<rect x="28" y="478" width="344" height="52" fill="#0c1016"/>
<text x="200" y="512" text-anchor="middle" fill="#e8dcc4" font-family="ui-monospace,monospace" font-size="22">1300 / 1100</text>
</svg>
