<svg xmlns="http://www.w3.org/2000/svg" viewBox="0 0 400 560" width="400" height="560">
<defs><pattern id="grain" width="7" height="7" patternUnits="userSpaceOnUse"><path d="M0 7 L7 0" stroke="#2a2218" opacity=".055"/></pattern><clipPath id="well-DRB-101"><rect x="28" y="88" width="344" height="330"/></clipPath></defs>
<rect width="400" height="560" fill="#0e1014"/>
<rect x="10" y="10" width="380" height="540" fill="#1c1812" stroke="#6a5a3a" stroke-width="2"/>
<rect x="10" y="10" width="380" height="22" fill="#6a5a3a"/>
<text x="22" y="52" fill="#c4a574" font-family="ui-monospace,monospace" font-size="12" letter-spacing="1.6">EMİRNAME</text>
<text x="378" y="52" text-anchor="end" fill="#9aa093" font-family="ui-monospace,monospace" font-size="12">KABINE</text>
<text x="200" y="78" text-anchor="middle" fill="#e8dcc4" font-family="Georgia,serif" font-size="20">DRB-101</text>

<g clip-path="url(#well-DRB-101)" data-series="Kabine" data-kind="spell" data-subtype="normal" data-tier="low" data-aux="0"><rect x="28" y="88" width="344" height="330" fill="#1c2228"/><path d="M28 418 L168 220 L232 220 L372 418" fill="#2a323c"/><path d="M168 220 L232 220 L232 88 L168 88 Z" fill="#24303a"/><rect x="186" y="140" width="28" height="80" fill="#1a1814" stroke="#5a4a3a"/><path d="M28 418 L168 220 M232 220 L372 418" stroke="#8a7a5a" opacity=".45"/><rect x="70.0" y="110.0" width="28.0" height="220.0" fill="#d8c9a8" stroke="#6a5a3a" stroke-width="1.2"/><rect x="64.0" y="100.0" width="40.0" height="14.0" fill="#c4a574" stroke="#6a5a3a" stroke-width="1.2"/><rect x="160.0" y="110.0" width="28.0" height="220.0" fill="#d8c9a8" stroke="#6a5a3a" stroke-width="1.2"/><rect x="154.0" y="100.0" width="40.0" height="14.0" fill="#c4a574" stroke="#6a5a3a" stroke-width="1.2"/><rect x="250.0" y="110.0" width="28.0" height="220.0" fill="#d8c9a8" stroke="#6a5a3a" stroke-width="1.2"/><rect x="244.0" y="100.0" width="40.0" height="14.0" fill="#c4a574" stroke="#6a5a3a" stroke-width="1.2"/><g transform="rotate(2.0 180.0 310.0)"><rect x="90.0" y="250.0" width="180.0" height="120.0" fill="#e6d5b4" stroke="#6f5b43" stroke-width="1.2"/></g><g transform="rotate(8 300 180)"><circle cx="300" cy="180" r="28" fill="none" stroke="#5a4a3a" stroke-width="3.4"/><circle cx="300" cy="180" r="21" fill="none" stroke="#5a4a3a" stroke-width="1.1"/><text x="300" y="184" text-anchor="middle" fill="#5a4a3a" font-family="Georgia,serif" font-size="9" font-weight="700">BAKAN</text></g><rect x="48.0" y="368.0" width="78.0" height="36.0" rx="2" fill="#26221c" stroke="#8a7a5a" stroke-width="1.2"/><circle cx="70" cy="386" r="10" fill="none" stroke="#c4a574" stroke-width="2"/><circle cx="102" cy="386" r="10" fill="none" stroke="#c4a574" stroke-width="2"/><path d="M70 386 h32" stroke="#e4d4b4" stroke-width="2"/><g transform="rotate(-2.0 108.0 374.0)"><rect x="48.0" y="350.0" width="120.0" height="48.0" fill="#f3ead4" stroke="#6a5a3a" stroke-width="1"/></g><text x="56" y="378" fill="#5a4a32" font-family="ui-monospace,monospace" font-size="8">EMİRNAME</text><path d="M57.0 390.0 C93.0 348.0 138.0 399.0 191.0 383.0 S242.0 395.0 257.0 395.0" fill="none" stroke="#5a4a3a" stroke-width="2.6" stroke-linecap="round"/><path d="M81.0 398.0 C107.0 378.0 147.0 406.0 197.0 390.0" fill="none" stroke="#5a4a3a" stroke-width="1.4" opacity=".7"/><g transform="rotate(-2.0 111.0 113.0)"><rect x="45.0" y="99.0" width="132.0" height="28.0" fill="#f3ead4" stroke="#6f5b43" stroke-width="1.2"/></g><text x="53" y="117" fill="#3a2a18" font-family="ui-monospace,monospace" font-size="8">DRB-101 · İmza Sırası</text><rect x="28" y="88" width="344" height="330" fill="url(#grain)"/><!--well-end--></g>

<rect x="28" y="430" width="344" height="36" fill="#121820" opacity=".92"/>
<text x="200" y="454" text-anchor="middle" fill="#e8dcc4" font-family="Georgia,serif" font-size="18">İmza Sırası</text>
<rect x="28" y="478" width="344" height="52" fill="#0c1016"/>
<text x="200" y="512" text-anchor="middle" fill="#e8dcc4" font-family="ui-monospace,monospace" font-size="22">—</text>
</svg>
