<svg xmlns="http://www.w3.org/2000/svg" viewBox="0 0 400 560" width="400" height="560">
<defs><radialGradient id="lampDRB159" cx="29%" cy="40%" r="62%"><stop offset="0" stop-color="#f0d9a0" stop-opacity=".62"/><stop offset=".42" stop-color="#c4a574" stop-opacity=".16"/><stop offset="1" stop-color="#000000" stop-opacity="0"/></radialGradient><linearGradient id="floorDRB159" x1="0" y1="0" x2="0" y2="1"><stop offset="0" stop-color="#3a3228"/><stop offset="1" stop-color="#1a1610"/></linearGradient><linearGradient id="wallDRB159" x1="0" y1="0" x2="1" y2="1"><stop offset="0" stop-color="#243028"/><stop offset="1" stop-color="#0e1014"/></linearGradient><radialGradient id="vigDRB159" cx="50%" cy="42%" r="72%"><stop offset=".4" stop-color="#000" stop-opacity="0"/><stop offset="1" stop-color="#000" stop-opacity=".5"/></radialGradient><pattern id="hatch" width="6" height="6" patternUnits="userSpaceOnUse"><path d="M0 6 L6 0" stroke="#2a2218" opacity=".07"/></pattern><pattern id="grain" width="7" height="7" patternUnits="userSpaceOnUse"><path d="M0 7 L7 0" stroke="#2a2218" opacity=".05"/></pattern><clipPath id="well-DRB-159"><rect x="28" y="88" width="344" height="330"/></clipPath></defs>
<rect width="400" height="560" fill="#0e1014"/>
<rect x="10" y="10" width="380" height="540" fill="#161d28" stroke="#4e6a45" stroke-width="2"/>
<rect x="10" y="10" width="380" height="22" fill="#4e6a45"/>
<text x="22" y="52" fill="#c4a574" font-family="ui-monospace,monospace" font-size="12" letter-spacing="1.6">GÖREVLİ</text>
<text x="378" y="52" text-anchor="end" fill="#9aa093" font-family="ui-monospace,monospace" font-size="12">PARAF</text>
<text x="200" y="78" text-anchor="middle" fill="#e8dcc4" font-family="Georgia,serif" font-size="20">DRB-159</text>
<circle cx="176.0" cy="64.0" r="4.0" fill="#c4a574" stroke="none"/><circle cx="192.0" cy="64.0" r="4.0" fill="#c4a574" stroke="none"/><circle cx="208.0" cy="64.0" r="4.0" fill="#c4a574" stroke="none"/>
<g clip-path="url(#well-DRB-159)" data-series="Paraf" data-kind="unit" data-subtype="effect" data-tier="low" data-aux="0"><rect x="28.0" y="88.0" width="344.0" height="330.0" fill="url(#wallDRB159)" stroke="none"/><polygon points="127.0,116.0 271.0,116.0 271.0,230.0 127.0,230.0" fill="#243028" stroke="none"/><polygon points="28.0,88.0 127.0,116.0 271.0,116.0 372.0,88.0" fill="#18221c" stroke="none"/><polygon points="28.0,418.0 127.0,230.0 271.0,230.0 372.0,418.0" fill="url(#floorDRB159)" stroke="none"/><polygon points="28.0,88.0 127.0,116.0 127.0,230.0 28.0,418.0" fill="#243028" stroke="none" opacity="0.92"/><polygon points="372.0,88.0 271.0,116.0 271.0,230.0 372.0,418.0" fill="#10141a" stroke="none" opacity="0.88"/><rect x="28.0" y="88.0" width="344.0" height="330.0" fill="url(#lampDRB159)" stroke="none"/><rect x="28.0" y="88.0" width="344.0" height="330.0" fill="url(#hatch)" stroke="none"/><rect x="28.0" y="88.0" width="344.0" height="330.0" fill="url(#vigDRB159)" stroke="none"/><g transform="rotate(-7.0 145.0 250.0)"><rect x="50.0" y="140.0" width="190.0" height="220.0" fill="#e6d5b4" stroke="#6f5b43" stroke-width="1.1"/><path d="M60.0 156.0 h104.5" fill="none" stroke="#5d503e" stroke-width="1.15" stroke-linecap="round" stroke-linejoin="round"/><path d="M60.0 167.0 h136.8" fill="none" stroke="#5d503e" stroke-width="1.15" stroke-linecap="round" stroke-linejoin="round"/><path d="M60.0 178.0 h169.1" fill="none" stroke="#5d503e" stroke-width="1.15" stroke-linecap="round" stroke-linejoin="round"/><path d="M60.0 189.0 h112.1" fill="none" stroke="#5d503e" stroke-width="1.15" stroke-linecap="round" stroke-linejoin="round"/><path d="M60.0 200.0 h144.4" fill="none" stroke="#5d503e" stroke-width="1.15" stroke-linecap="round" stroke-linejoin="round"/><path d="M60.0 211.0 h87.4" fill="none" stroke="#5d503e" stroke-width="1.15" stroke-linecap="round" stroke-linejoin="round"/></g><g transform="rotate(9.0 255.0 270.0)"><rect x="170.0" y="180.0" width="170.0" height="180.0" fill="#d2c4a3" stroke="#6f5b43" stroke-width="1.1"/><path d="M180.0 196.0 h142.8" fill="none" stroke="#5d503e" stroke-width="1.15" stroke-linecap="round" stroke-linejoin="round"/><path d="M180.0 207.0 h91.8" fill="none" stroke="#5d503e" stroke-width="1.15" stroke-linecap="round" stroke-linejoin="round"/><path d="M180.0 218.0 h120.7" fill="none" stroke="#5d503e" stroke-width="1.15" stroke-linecap="round" stroke-linejoin="round"/><path d="M180.0 229.0 h149.6" fill="none" stroke="#5d503e" stroke-width="1.15" stroke-linecap="round" stroke-linejoin="round"/><path d="M180.0 240.0 h98.6" fill="none" stroke="#5d503e" stroke-width="1.15" stroke-linecap="round" stroke-linejoin="round"/></g><path d="M104.0 312.0 C135.0 254.0 188.0 318.0 241.0 314.0 S295.0 316.0 304.0 307.0" fill="none" stroke="#4e6a45" stroke-width="2.4" stroke-linecap="round" stroke-linejoin="round"/><path d="M128.0 320.0 C154.0 300.0 194.0 328.0 244.0 312.0" fill="none" stroke="#4e6a45" stroke-width="1.3" stroke-linecap="round" stroke-linejoin="round" opacity="0.7"/><g transform="rotate(14 250.0 220.0)"><circle cx="250.0" cy="220.0" r="30" fill="none" stroke="#4e6a45" stroke-width="3"/><circle cx="250.0" cy="220.0" r="23" fill="none" stroke="#4e6a45" stroke-width="1"/><text x="250.0" y="224.0" text-anchor="middle" fill="#4e6a45" font-family="Georgia,serif" font-size="8" font-weight="700">ONAY</text></g><rect x="48.0" y="100.0" width="92.0" height="18.0" fill="#1a1612" stroke="#4e6a45" stroke-width="1.1"/><text x="94.0" y="113.0" text-anchor="middle" fill="#c4a574" font-family="ui-monospace,monospace" font-size="9" font-weight="700">PARAF</text><rect x="250.0" y="350.0" width="90.0" height="48.0" fill="#e8dcc0" stroke="#6a5a3a" stroke-width="1.1"/><path d="M250 350 L295.0 378 L340 350" fill="#d8ccb0" stroke="#6a5a3a" stroke-width="1.2" stroke-linecap="round" stroke-linejoin="round"/><path d="M73.0 390.0 C121.0 370.0 148.0 388.0 193.0 382.0 S246.0 403.0 273.0 384.0" fill="none" stroke="#4e6a45" stroke-width="2.4" stroke-linecap="round" stroke-linejoin="round"/><path d="M97.0 398.0 C123.0 378.0 163.0 406.0 213.0 390.0" fill="none" stroke="#4e6a45" stroke-width="1.3" stroke-linecap="round" stroke-linejoin="round" opacity="0.7"/><g transform="rotate(0.0 113.0 113.0)"><rect x="47.0" y="100.0" width="132.0" height="26.0" fill="#f3ead4" stroke="#6f5b43" stroke-width="1.1"/></g><text x="55.0" y="117.0" text-anchor="start" fill="#3a2a18" font-family="ui-monospace,monospace" font-size="8" font-weight="600">DRB-159 · Vize Eri</text><rect x="28" y="88" width="344" height="330" fill="url(#lampDRB159)" style="mix-blend-mode:soft-light" opacity=".72"/><rect x="28" y="88" width="344" height="330" fill="url(#vigDRB159)"/><rect x="28" y="88" width="344" height="330" fill="url(#grain)"/><!--well-end--></g>

<rect x="28" y="430" width="344" height="36" fill="#121820" opacity=".92"/>
<text x="200" y="454" text-anchor="middle" fill="#e8dcc4" font-family="Georgia,serif" font-size="18">Vize Eri</text>
<rect x="28" y="478" width="344" height="52" fill="#0c1016"/>
<text x="200" y="512" text-anchor="middle" fill="#e8dcc4" font-family="ui-monospace,monospace" font-size="22">1000 / 700</text>
</svg>
