<svg xmlns="http://www.w3.org/2000/svg" viewBox="0 0 400 560" width="400" height="560">
<defs><clipPath id="scene"><rect x="36" y="118" width="328" height="268"/></clipPath></defs>
<rect width="400" height="560" fill="#141c28"/>
<rect x="10" y="10" width="380" height="540" fill="#1a2433" stroke="#3d5e7a" stroke-width="5"/>
<rect x="10" y="10" width="380" height="18" fill="#3d5e7a"/>
<text x="24" y="54" fill="#c4a574" font-family="ui-monospace,monospace" font-size="13" letter-spacing="2">GÖREVLİ</text>
<text x="376" y="54" text-anchor="end" fill="#8a93a3" font-family="ui-monospace,monospace" font-size="13">BRIFING</text>
<text x="200" y="96" text-anchor="middle" fill="#e8dcc4" font-family="Georgia,serif" font-size="22">DRB-074</text>
<circle cx="137" cy="78" r="5" fill="#3d5e7a"/><circle cx="155" cy="78" r="5" fill="#3d5e7a"/><circle cx="173" cy="78" r="5" fill="#3d5e7a"/><circle cx="191" cy="78" r="5" fill="#3d5e7a"/><circle cx="209" cy="78" r="5" fill="#3d5e7a"/><circle cx="227" cy="78" r="5" fill="#3d5e7a"/><circle cx="245" cy="78" r="5" fill="#3d5e7a"/>
<rect x="36" y="118" width="328" height="268" fill="#243044" stroke="#2e3d52" stroke-width="1"/>
<g clip-path="url(#scene)"><rect x="36" y="118" width="328" height="268" fill="#171b20"/><path d="M36 334 L364 291 V386 H36Z" fill="#3a2d24"/><path d="M36 337 L364 294" stroke="#8f7355" opacity=".45"/><path d="M103 145 l18 -4" stroke="#eadfbe" opacity=".10"/><path d="M150 174 l21 -3" stroke="#eadfbe" opacity=".10"/><path d="M197 203 l24 -2" stroke="#eadfbe" opacity=".10"/><path d="M244 232 l27 -1" stroke="#eadfbe" opacity=".10"/><path d="M291 261 l30 0" stroke="#eadfbe" opacity=".10"/><path d="M338 290 l33 1" stroke="#eadfbe" opacity=".10"/><path d="M85 319 l36 2" stroke="#eadfbe" opacity=".10"/><path d="M72 169h238l24 154H57Z" fill="#bbaa83" stroke="#5e4b37"/><path d="M92 191l78 23 53-19 86 39-62 68-84-21-73 24Z" fill="#7e8b76" stroke="#4b5548"/><path d="M110 277c54-71 113-24 175-72" fill="none" stroke="#3d5e7a" stroke-width="4"/><circle cx="188" cy="247" r="8" fill="#8c3e35"/><circle cx="260" cy="216" r="6" fill="#b99a54"/><g transform="translate(216 324) rotate(3)"><path d="M-24 9L17-10M-20 14L21-5" stroke="#ddd0ae" stroke-width="4"/><path d="M18-12l8-4-3 9z" fill="#3d5e7a"/></g><g opacity=".35" transform="scale(.5) translate(310 325)"><rect x="150" y="260" width="100" height="14" fill="#c4a574"/><polygon points="170,260 200,200 230,260" fill="none" stroke="#e8dcc4" stroke-width="3"/></g></g>

<text x="200" y="430" text-anchor="middle" fill="#e8dcc4" font-family="Georgia,serif" font-size="20">Brifing Dizgicisi</text>
<text x="200" y="462" text-anchor="middle" fill="#c4a574" font-family="ui-monospace,monospace" font-size="13">BRIFING</text>
<rect x="36" y="484" width="328" height="44" fill="#121820"/>
<text x="200" y="514" text-anchor="middle" fill="#e8dcc4" font-family="ui-monospace,monospace" font-size="22">2200 / 2400</text>
</svg>
