<svg xmlns="http://www.w3.org/2000/svg" viewBox="0 0 400 560" width="400" height="560">
<defs><pattern id="grain" width="7" height="7" patternUnits="userSpaceOnUse"><path d="M0 7 L7 0" stroke="#2a2218" opacity=".055"/></pattern><clipPath id="well-DRB-028"><rect x="28" y="88" width="344" height="330"/></clipPath></defs>
<rect width="400" height="560" fill="#0e1014"/>
<rect x="10" y="10" width="380" height="540" fill="#161d28" stroke="#3e4a58" stroke-width="2"/>
<rect x="10" y="10" width="380" height="22" fill="#3e4a58"/>
<text x="22" y="52" fill="#c4a574" font-family="ui-monospace,monospace" font-size="12" letter-spacing="1.6">GÖREVLİ</text>
<text x="378" y="52" text-anchor="end" fill="#9aa093" font-family="ui-monospace,monospace" font-size="12">KARARGAH</text>
<text x="200" y="78" text-anchor="middle" fill="#e8dcc4" font-family="Georgia,serif" font-size="20">DRB-028</text>
<circle cx="176" cy="64" r="4" fill="#c4a574"/><circle cx="192" cy="64" r="4" fill="#c4a574"/><circle cx="208" cy="64" r="4" fill="#c4a574"/>
<g clip-path="url(#well-DRB-028)" data-series="Karargah" data-kind="unit" data-subtype="effect" data-tier="low" data-aux="0"><rect x="28" y="88" width="344" height="330" fill="#202830"/><rect x="48.0" y="108.0" width="304.0" height="164.0" fill="#c5cbb0" stroke="#5a4a32" stroke-width="1.2"/><path d="M56 209.7 c85.1 -62.3 152.0 29.5 288.0 -23.0" fill="none" stroke="#3e4a58" stroke-width="2.2"/><circle cx="151.4" cy="170.3" r="4" fill="#7a2e28"/><path d="M60 118 h60.8 M60 126 h42.6" stroke="#4a5a44" stroke-width="1"/><rect x="58.0" y="292.0" width="52.0" height="28.0" rx="4" fill="#2a2e28" stroke="#8a7a5a" stroke-width="1.2"/><path d="M64 284 q20 -16 40 0" fill="none" stroke="#c4a574" stroke-width="5" stroke-linecap="round"/><circle cx="74" cy="306" r="3" fill="#e4d4b4"/><circle cx="94" cy="306" r="3" fill="#e4d4b4"/><rect x="138.0" y="290.0" width="78.0" height="36.0" rx="2" fill="#26221c" stroke="#8a7a5a" stroke-width="1.2"/><circle cx="160" cy="308" r="10" fill="none" stroke="#c4a574" stroke-width="2"/><circle cx="192" cy="308" r="10" fill="none" stroke="#c4a574" stroke-width="2"/><path d="M160 308 h32" stroke="#e4d4b4" stroke-width="2"/><g transform="rotate(-5.0 295.0 325.0)"><rect x="240.0" y="280.0" width="110.0" height="90.0" fill="#e6d5b4" stroke="#6f5b43" stroke-width="1.2"/></g><g transform="rotate(20 304 198)"><circle cx="304" cy="198" r="28" fill="none" stroke="#3e4a58" stroke-width="3.4"/><circle cx="304" cy="198" r="21" fill="none" stroke="#3e4a58" stroke-width="1.1"/><text x="304" y="202" text-anchor="middle" fill="#3e4a58" font-family="Georgia,serif" font-size="9" font-weight="700">KARAR</text></g><path d="M330 100 v22 q0 8 8 8 q8 0 8 -8 v-18" fill="none" stroke="#8a7a5a" stroke-width="2.4"/><path d="M334 102 v18 q0 4 4 4" fill="none" stroke="#c4b48a" stroke-width="1.4"/><path d="M63.0 390.0 C91.0 333.0 155.0 392.0 199.0 398.0 S242.0 404.0 263.0 396.0" fill="none" stroke="#3e4a58" stroke-width="2.6" stroke-linecap="round"/><path d="M87.0 398.0 C113.0 378.0 153.0 406.0 203.0 390.0" fill="none" stroke="#3e4a58" stroke-width="1.4" opacity=".7"/><g transform="rotate(-2.0 104.0 110.0)"><rect x="38.0" y="96.0" width="132.0" height="28.0" fill="#f3ead4" stroke="#6f5b43" stroke-width="1.2"/></g><text x="46" y="114" fill="#3a2a18" font-family="ui-monospace,monospace" font-size="8">DRB-028 · Karargâh Müsteşarı</text><rect x="28" y="88" width="344" height="330" fill="url(#grain)"/><!--well-end--></g>

<rect x="28" y="430" width="344" height="36" fill="#121820" opacity=".92"/>
<text x="200" y="454" text-anchor="middle" fill="#e8dcc4" font-family="Georgia,serif" font-size="18">Karargâh Müsteşarı</text>
<rect x="28" y="478" width="344" height="52" fill="#0c1016"/>
<text x="200" y="512" text-anchor="middle" fill="#e8dcc4" font-family="ui-monospace,monospace" font-size="22">1200 / 900</text>
</svg>
