<svg xmlns="http://www.w3.org/2000/svg" viewBox="0 0 400 560" width="400" height="560">
<rect width="400" height="560" fill="#141c28"/>
<rect x="10" y="10" width="380" height="540" fill="#1a2433" stroke="#8a6a3a" stroke-width="2"/>
<rect x="10" y="10" width="380" height="18" fill="#8a6a3a"/>
<text x="24" y="54" fill="#c4a574" font-family="ui-monospace,monospace" font-size="13" letter-spacing="2">GÖREVLİ</text>
<text x="376" y="54" text-anchor="end" fill="#8a93a3" font-family="ui-monospace,monospace" font-size="13">TELEX</text>
<text x="200" y="96" text-anchor="middle" fill="#e8dcc4" font-family="Georgia,serif" font-size="22">DRB-017</text>
<circle cx="173" cy="78" r="5" fill="#8a6a3a"/><circle cx="191" cy="78" r="5" fill="#8a6a3a"/><circle cx="209" cy="78" r="5" fill="#8a6a3a"/>
<rect x="36" y="118" width="328" height="268" fill="#243044" stroke="#2e3d52" stroke-width="1"/>
<rect x="100" y="210" width="200" height="80" fill="none" stroke="#c4a574" stroke-width="3"/><rect x="110" y="242" width="8" height="8" fill="#e8dcc4"/><rect x="124" y="246" width="8" height="8" fill="#c4a574"/><rect x="138" y="250" width="8" height="8" fill="#e8dcc4"/><rect x="152" y="242" width="8" height="8" fill="#c4a574"/><rect x="166" y="246" width="8" height="8" fill="#e8dcc4"/><rect x="180" y="250" width="8" height="8" fill="#c4a574"/><rect x="194" y="242" width="8" height="8" fill="#e8dcc4"/><rect x="208" y="246" width="8" height="8" fill="#c4a574"/><rect x="222" y="250" width="8" height="8" fill="#e8dcc4"/><rect x="236" y="242" width="8" height="8" fill="#c4a574"/><rect x="250" y="246" width="8" height="8" fill="#e8dcc4"/><rect x="264" y="250" width="8" height="8" fill="#c4a574"/><rect x="278" y="242" width="8" height="8" fill="#e8dcc4"/>

<text x="200" y="430" text-anchor="middle" fill="#e8dcc4" font-family="Georgia,serif" font-size="20">Telex Raportörü</text>
<text x="200" y="462" text-anchor="middle" fill="#c4a574" font-family="ui-monospace,monospace" font-size="13">TELEX</text>
<rect x="36" y="484" width="328" height="44" fill="#121820"/>
<text x="200" y="514" text-anchor="middle" fill="#e8dcc4" font-family="ui-monospace,monospace" font-size="22">700 / 1200</text>
</svg>
