<svg xmlns="http://www.w3.org/2000/svg" viewBox="0 0 240 160" width="240" height="160"><defs><radialGradient id="l" cx="0.38" cy="0.15" r="0.8"><stop offset="0" stop-color="#e8dcc4" stop-opacity="0.34"/><stop offset=".5" stop-color="#c4a574" stop-opacity=".12"/><stop offset="1" stop-color="#121820" stop-opacity="0"/></radialGradient><linearGradient id="w" x1="0" y1="0" x2="0" y2="1"><stop offset="0" stop-color="#1a2433"/><stop offset="1" stop-color="#243044"/></linearGradient></defs><rect width="240" height="160" fill="url(#w)"/><rect width="240" height="160" fill="url(#l)"/><g opacity=".45"><g transform="translate(44 92) scale(1.3)"><g transform="translate(0 0)"><rect x="-24" y="-18" width="52" height="30" rx="3" fill="#243044" stroke="#121820" stroke-width="1.6" stroke-linejoin="round" stroke-linecap="round"/><rect x="-18" y="-12" width="22" height="10" fill="#121820"/><circle cx="16" cy="-4" r="5" fill="#c4a574" stroke="#121820" stroke-width="1.2" stroke-linejoin="round" stroke-linecap="round"/><path d="M10 -18Q16 -40 34 -44T64 -34" fill="none" stroke="#d8dde4" stroke-width="5" stroke-linejoin="round" stroke-linecap="round"/><circle cx="16" cy="-38" r="1" fill="#121820"/><circle cx="23" cy="-35.47558704557631" r="1" fill="#121820"/><circle cx="30" cy="-35.27210771952296" r="1" fill="#121820"/><circle cx="37" cy="-37.5766399758204" r="1" fill="#121820"/><circle cx="44" cy="-40.27040748592378" r="1" fill="#121820"/><circle cx="51" cy="-40.87677282398941" r="1" fill="#121820"/></g></g><g transform="translate(0 16)"><path d="M0 0H240L234 5L240 10H0L6 5Z" fill="#1a2433" stroke="#121820" stroke-width="1.2" stroke-linejoin="round" stroke-linecap="round"/></g></g><path d="M0 117H240V160H0Z" fill="#8a6a3a" opacity=".4"/><g transform="translate(100 34) scale(1.2)"><rect width="40" height="64" fill="#243044" stroke="#121820" stroke-width="1.6" stroke-linejoin="round" stroke-linecap="round"/><rect x="4" y="4" width="32" height="15.7" fill="#1a2433" stroke="#121820" stroke-width="1.2" stroke-linejoin="round" stroke-linecap="round"/><rect x="15" y="10.3" width="10" height="3" fill="#c4a574"/><rect x="-6" y="22.7" width="52" height="15.7" fill="#1a2433" stroke="#121820" stroke-width="1.6" stroke-linejoin="round" stroke-linecap="round"/><path d="M-2 25.7h44" stroke="#d8dde4" stroke-width="3" stroke-linejoin="round" stroke-linecap="round"/><rect x="4" y="41.3" width="32" height="15.7" fill="#1a2433" stroke="#121820" stroke-width="1.2" stroke-linejoin="round" stroke-linecap="round"/><rect x="15" y="47.7" width="10" height="3" fill="#c4a574"/></g><g transform="translate(170 40)"><path d="M0 0Q24 -18 44 6M36 0L44 6L36 12" fill="none" stroke="#c4a574" stroke-width="2.6" stroke-linejoin="round" stroke-linecap="round"/></g><rect x="1" y="1" width="238" height="158" fill="none" stroke="#121820" stroke-width="6" opacity=".35"/></svg>
