<svg xmlns="http://www.w3.org/2000/svg" viewBox="0 0 240 160" width="240" height="160"><defs><radialGradient id="l" cx="0.56" cy="0.15" r="0.8"><stop offset="0" stop-color="#e8dcc4" stop-opacity="0.34"/><stop offset=".5" stop-color="#7a93a8" stop-opacity=".12"/><stop offset="1" stop-color="#121820" stop-opacity="0"/></radialGradient><linearGradient id="w" x1="0" y1="0" x2="0" y2="1"><stop offset="0" stop-color="#1a2433"/><stop offset="1" stop-color="#243044"/></linearGradient></defs><rect width="240" height="160" fill="url(#w)"/><rect width="240" height="160" fill="url(#l)"/><g opacity=".9"><g transform="translate(126 18)"><rect width="40" height="82" fill="#243044" stroke="#121820" stroke-width="1.6" stroke-linejoin="round" stroke-linecap="round"/><rect x="-6" y="4" width="52" height="21.7" fill="#1a2433" stroke="#121820" stroke-width="1.6" stroke-linejoin="round" stroke-linecap="round"/><path d="M-2 7h44" stroke="#d8dde4" stroke-width="3" stroke-linejoin="round" stroke-linecap="round"/><rect x="4" y="28.7" width="32" height="21.7" fill="#1a2433" stroke="#121820" stroke-width="1.2" stroke-linejoin="round" stroke-linecap="round"/><rect x="15" y="38" width="10" height="3" fill="#c4a574"/><rect x="4" y="53.3" width="32" height="21.7" fill="#1a2433" stroke="#121820" stroke-width="1.2" stroke-linejoin="round" stroke-linecap="round"/><rect x="15" y="62.7" width="10" height="3" fill="#c4a574"/></g><g transform="translate(176 18)"><rect width="40" height="82" fill="#243044" stroke="#121820" stroke-width="1.6" stroke-linejoin="round" stroke-linecap="round"/><rect x="4" y="4" width="32" height="21.7" fill="#1a2433" stroke="#121820" stroke-width="1.2" stroke-linejoin="round" stroke-linecap="round"/><rect x="15" y="13.3" width="10" height="3" fill="#c4a574"/><rect x="4" y="28.7" width="32" height="21.7" fill="#1a2433" stroke="#121820" stroke-width="1.2" stroke-linejoin="round" stroke-linecap="round"/><rect x="15" y="38" width="10" height="3" fill="#c4a574"/><rect x="4" y="53.3" width="32" height="21.7" fill="#1a2433" stroke="#121820" stroke-width="1.2" stroke-linejoin="round" stroke-linecap="round"/><rect x="15" y="62.7" width="10" height="3" fill="#c4a574"/></g></g><g transform="translate(58.3 92.6) scale(1.1)"><path d="M-42 64C-40 30 -24 18 0 18C24 18 40 30 42 64Z" fill="#243044" stroke="#121820" stroke-width="1.6" stroke-linejoin="round" stroke-linecap="round"/><path d="M-9 18L0 38L9 18Z" fill="#d8dde4" stroke="#121820" stroke-width="1.2" stroke-linejoin="round" stroke-linecap="round"/><path d="M-3 22L0 44L3 22Z" fill="#7a93a8"/><path d="M-9 18L-16 40M9 18L16 40" stroke="#121820" stroke-width="1.2" stroke-linejoin="round" stroke-linecap="round" opacity=".6"/><rect x="-34" y="34" width="3.4" height="3.4" fill="#c4a574"/><rect x="-29" y="34" width="3.4" height="3.4" fill="#c4a574"/><rect x="-24" y="34" width="3.4" height="3.4" fill="#c4a574"/><path d="M26 24Q46 40 58 40" fill="none" stroke="#121820" stroke-width="12" stroke-linecap="round"/><path d="M26 24Q46 40 58 40" fill="none" stroke="#243044" stroke-width="9" stroke-linecap="round"/><circle cx="58" cy="40" r="5" fill="#d8dde4" stroke="#121820" stroke-width="1.2" stroke-linejoin="round" stroke-linecap="round"/><ellipse cx="0" cy="-6" rx="14" ry="17" fill="#d8dde4" stroke="#121820" stroke-width="1.6" stroke-linejoin="round" stroke-linecap="round"/><path d="M2 -22Q16 -18 14 -4Q12 10 0 11Q10 -2 2 -22Z" fill="#121820" opacity=".35"/><circle cx="-5" cy="-5" r="4" fill="none" stroke="#121820" stroke-width="1.4" stroke-linejoin="round" stroke-linecap="round"/><circle cx="6" cy="-5" r="4" fill="none" stroke="#121820" stroke-width="1.4" stroke-linejoin="round" stroke-linecap="round"/><path d="M-1 -5h3" stroke="#121820" stroke-width="1.2" stroke-linejoin="round" stroke-linecap="round"/></g><path d="M0 149H240V160H0Z" fill="#8a6a3a" stroke="#121820" stroke-width="1.6"/><path d="M0 149H240" stroke="#c4a574" stroke-width="1" opacity=".5"/><g transform="translate(78.3 130)"><g transform="translate(0 0) rotate(-8)"><rect width="30" height="20" fill="#e8dcc4" stroke="#121820" stroke-width="1.2" stroke-linejoin="round" stroke-linecap="round"/><path d="M3 6h22" stroke="#c17a72" stroke-width="1.2" stroke-linejoin="round" stroke-linecap="round"/><path d="M3 12h16" stroke="#1a2433" stroke-width="1" stroke-linejoin="round" stroke-linecap="round" opacity=".5"/></g><g transform="translate(10 -3)"><rect width="30" height="20" fill="#e8dcc4" stroke="#121820" stroke-width="1.2" stroke-linejoin="round" stroke-linecap="round"/><path d="M3 6h22" stroke="#c17a72" stroke-width="1.2" stroke-linejoin="round" stroke-linecap="round"/><path d="M3 12h16" stroke="#1a2433" stroke-width="1" stroke-linejoin="round" stroke-linecap="round" opacity=".5"/></g><g transform="translate(20 -6) rotate(8)"><rect width="30" height="20" fill="#e8dcc4" stroke="#121820" stroke-width="1.2" stroke-linejoin="round" stroke-linecap="round"/><path d="M3 6h22" stroke="#c17a72" stroke-width="1.2" stroke-linejoin="round" stroke-linecap="round"/><path d="M3 12h16" stroke="#1a2433" stroke-width="1" stroke-linejoin="round" stroke-linecap="round" opacity=".5"/></g></g><g transform="translate(200 70)"><ellipse cx="0" cy="0" rx="10" ry="4" fill="#c4a574" stroke="#121820" stroke-width="1.2" stroke-linejoin="round" stroke-linecap="round"/><ellipse cx="0" cy="-4" rx="10" ry="4" fill="#c4a574" stroke="#121820" stroke-width="1.2" stroke-linejoin="round" stroke-linecap="round"/><ellipse cx="0" cy="-8" rx="10" ry="4" fill="#c4a574" stroke="#121820" stroke-width="1.2" stroke-linejoin="round" stroke-linecap="round"/><ellipse cx="0" cy="-12" rx="10" ry="4" fill="#c4a574" stroke="#121820" stroke-width="1.2" stroke-linejoin="round" stroke-linecap="round"/></g><rect x="1" y="1" width="238" height="158" fill="none" stroke="#121820" stroke-width="6" opacity=".35"/></svg>
