<svg xmlns="http://www.w3.org/2000/svg" viewBox="0 0 240 160" width="240" height="160"><defs><radialGradient id="l" cx="0.38" cy="0.15" r="0.8"><stop offset="0" stop-color="#e8dcc4" stop-opacity="0.34"/><stop offset=".5" stop-color="#c4a574" stop-opacity=".12"/><stop offset="1" stop-color="#121820" stop-opacity="0"/></radialGradient><linearGradient id="w" x1="0" y1="0" x2="0" y2="1"><stop offset="0" stop-color="#1a2433"/><stop offset="1" stop-color="#243044"/></linearGradient></defs><rect width="240" height="160" fill="url(#w)"/><rect width="240" height="160" fill="url(#l)"/><g opacity=".45"><rect x="128" y="10" width="104" height="80" fill="#8a6a3a" opacity=".55"/><g transform="translate(138 18) rotate(-4)"><path d="M0 0H27L36 9V46H0Z" fill="#d8dde4" stroke="#121820" stroke-width="1.6" stroke-linejoin="round" stroke-linecap="round"/><path d="M27 0V9H36" fill="none" stroke="#121820" stroke-width="1.2" stroke-linejoin="round" stroke-linecap="round"/><path d="M6 10h21.6" stroke="#1a2433" stroke-width="1.3" stroke-linejoin="round" stroke-linecap="round" opacity=".55"/><path d="M6 16h18.7" stroke="#1a2433" stroke-width="1.3" stroke-linejoin="round" stroke-linecap="round" opacity=".55"/><path d="M6 22h15.8" stroke="#1a2433" stroke-width="1.3" stroke-linejoin="round" stroke-linecap="round" opacity=".55"/><path d="M6 28h21.6" stroke="#1a2433" stroke-width="1.3" stroke-linejoin="round" stroke-linecap="round" opacity=".55"/><path d="M6 34h13.2" stroke="#1a2433" stroke-width="1.3" stroke-linejoin="round" stroke-linecap="round" opacity=".55"/><circle cx="25" cy="35" r="6" fill="none" stroke="#c17a72" stroke-width="1.8" stroke-linejoin="round" stroke-linecap="round"/></g><g transform="translate(182 22) rotate(5)"><path d="M0 0H25L34 9V40H0Z" fill="#d8dde4" stroke="#121820" stroke-width="1.6" stroke-linejoin="round" stroke-linecap="round"/><path d="M25 0V9H34" fill="none" stroke="#121820" stroke-width="1.2" stroke-linejoin="round" stroke-linecap="round"/><path d="M6 10h19.8" stroke="#1a2433" stroke-width="1.3" stroke-linejoin="round" stroke-linecap="round" opacity=".55"/><path d="M6 16h17.2" stroke="#1a2433" stroke-width="1.3" stroke-linejoin="round" stroke-linecap="round" opacity=".55"/><path d="M6 22h14.5" stroke="#1a2433" stroke-width="1.3" stroke-linejoin="round" stroke-linecap="round" opacity=".55"/><path d="M6 28h12.1" stroke="#1a2433" stroke-width="1.3" stroke-linejoin="round" stroke-linecap="round" opacity=".55"/></g><circle cx="154" cy="20" r="3" fill="#c17a72"/><circle cx="198" cy="24" r="3" fill="#c17a72"/></g><path d="M0 114H240V160H0Z" fill="#8a6a3a" opacity=".4"/><g transform="translate(84 26) rotate(0.8) scale(1.4)"><path d="M0 0H43L52 9V72H0Z" fill="#d8dde4" stroke="#121820" stroke-width="1.6" stroke-linejoin="round" stroke-linecap="round"/><path d="M43 0V9H52" fill="none" stroke="#121820" stroke-width="1.2" stroke-linejoin="round" stroke-linecap="round"/><path d="M6 10h36" stroke="#1a2433" stroke-width="1.3" stroke-linejoin="round" stroke-linecap="round" opacity=".55"/><path d="M6 18h31.2" stroke="#1a2433" stroke-width="1.3" stroke-linejoin="round" stroke-linecap="round" opacity=".55"/><path d="M6 26h26.4" stroke="#1a2433" stroke-width="1.3" stroke-linejoin="round" stroke-linecap="round" opacity=".55"/><path d="M6 34h36" stroke="#1a2433" stroke-width="1.3" stroke-linejoin="round" stroke-linecap="round" opacity=".55"/><path d="M6 42h31.2" stroke="#1a2433" stroke-width="1.3" stroke-linejoin="round" stroke-linecap="round" opacity=".55"/><path d="M6 50h26.4" stroke="#1a2433" stroke-width="1.3" stroke-linejoin="round" stroke-linecap="round" opacity=".55"/><path d="M6 58h22" stroke="#1a2433" stroke-width="1.3" stroke-linejoin="round" stroke-linecap="round" opacity=".55"/></g><g transform="translate(200 34)"><path d="M0 -10L3 -3H10L4 1L6 9L0 4L-6 9L-4 1L-10 -3H-3Z" fill="#c4a574" stroke="#121820" stroke-width="1.2"/></g><rect x="1" y="1" width="238" height="158" fill="none" stroke="#121820" stroke-width="6" opacity=".35"/></svg>
